# xmcd CD database file
#
# Track frame offsets:
#	150
#	11622
#	30597
#	48897
#	71997
#	89997
#	112422
#
# Disc length: 1650 seconds
#
# Revision: 0
# Processed by: cddbd v1.4PL0 Copyright (c) Steve Scherf et al.
# Submitted via: NeoAudio 9.9.9
#
DISCID=64067007
DTITLE=Mayra León - "La Cubana" que Rico!!!
DYEAR=2003
DGENRE=Salsa
TTITLE0=Rezo Acapela
TTITLE1=Se Llamaba Amor
TTITLE2=Baila Mi Pilón
TTITLE3=Elogio
TTITLE4=Samsajazz 94
TTITLE5=A Varadero
TTITLE6=Rezo Acapela
EXTD=YEAR: 2003
EXTT0=
EXTT1=
EXTT2=
EXTT3=
EXTT4=
EXTT5=
EXTT6=
PLAYORDER=
